<?xml version="1.0" encoding="utf-8"?>
<!-- Generator: Adobe Illustrator 22.1.0, SVG Export Plug-In . SVG Version: 6.00 Build 0)  -->
<svg version="1.1" id="Ebene_1" xmlns="http://www.w3.org/2000/svg" xmlns:xlink="http://www.w3.org/1999/xlink" x="0px" y="0px"
	 width="500px" height="156px" viewBox="0 0 500 156" style="enable-background:new 0 0 500 156;" xml:space="preserve">
<style type="text/css">
	.st0{fill:#0A3051;}
</style>
<g>
	<g>
		<path class="st0" d="M23.6,89.2V78.4c6.5,2.4,13.8,3.6,21.9,3.6c9.9,0,14.8-3.3,14.8-9.9c0-4.8-3-7.2-9.1-7.2h-11
			c-13.2,0-19.8-6-19.8-18c0-13.2,9.4-19.8,28.2-19.8c7.2,0,14.1,1.1,20.5,3.2V41c-6.5-2.4-13.3-3.6-20.5-3.6
			c-10.8,0-16.2,3.2-16.2,9.5c0,4.8,2.6,7.2,7.8,7.2h11c14,0,21.1,6,21.1,18c0,13.5-8.9,20.3-26.8,20.3
			C37.4,92.4,30.1,91.3,23.6,89.2z"/>
		<path class="st0" d="M86.4,27.4h12.9l18.1,31.1l17-31.1h12.4l-23.7,41.9v22.6h-11.9V69.4L86.4,27.4z"/>
		<path class="st0" d="M165,91.9V27.4h12.4l21.9,48.9l21.4-48.9h11.9v64.5h-11V47l-17.5,44.9h-10.2L176.1,47v44.9H165z"/>
		<path class="st0" d="M304.1,89.2c-5.6,2.1-11.9,3.2-18.9,3.2c-23.1,0-34.7-11.2-34.7-33.6c0-21.2,11.6-31.8,34.7-31.8
			c7.1,0,13.4,1.1,18.9,3.2V41c-5.6-2.4-11.6-3.6-18-3.6c-15.5,0-23.2,7.1-23.2,21.4c0,15.5,7.7,23.2,23.2,23.2
			c6.5,0,12.5-1.2,18-3.6V89.2z"/>
		<path class="st0" d="M414.3,91.9V27.4h11.9l35.9,46.1V27.4h11.5v64.5h-11.9l-35.9-47.1v47.1H414.3z"/>
		<path class="st0" d="M352.8,92h35.8V66.5l4.1,4.1l8.1-8.1L359,20.6l0,0h0l-41.9,41.9l8.1,8.1l4.1-4.1V92h11.5l0-37L359,36.9
			L377.1,55v25.5h-12.5V68.3h-11.8L352.8,92L352.8,92z"/>
	</g>
	<polygon class="st0" points="34.1,131.2 141.6,131.2 141.6,119.4 20.5,119.4 	"/>
	<g>
		<path class="st0" d="M170.4,135.2l9.3-21.9h4.4l9.5,21.9h-4.4l-2.8-6h-7l1.4-3.5h4.5l-3.6-8.2l-7.2,17.7H170.4z"/>
		<path class="st0" d="M210.7,119.2v16.1h-3.2l-0.5-2c-1.9,1.4-3.9,2-5.9,2c-3.7,0-5.5-2-5.5-6v-10.1h4.1v10.1
			c0,1.8,0.9,2.7,2.6,2.7c1.4,0,2.9-0.7,4.3-2v-10.8L210.7,119.2L210.7,119.2z"/>
		<path class="st0" d="M214.4,116.6h3l0.6,2.6h3.7v3.2h-3.3v7.4c0,1.5,0.6,2.2,1.9,2.2h1.3v3.2h-3.3c-2.7,0-4-1.4-4-4.3V116.6z"/>
		<path class="st0" d="M223.6,127.2c0-5.5,2.7-8.2,8.1-8.2c5.4,0,8.1,2.7,8.1,8.2c0,5.4-2.7,8.2-8.1,8.2
			C226.4,135.4,223.7,132.6,223.6,127.2z M231.8,132.2c2.7,0,4.1-1.7,4.1-5c0-3.3-1.4-4.9-4.1-4.9s-4.1,1.6-4.1,4.9
			C227.7,130.5,229.1,132.2,231.8,132.2z"/>
		<path class="st0" d="M242.5,135.2v-16.1h3.1l0.5,2c1.8-1.3,3.7-2,5.5-2c2,0,3.5,0.7,4.3,2.2c2-1.5,4-2.2,5.8-2.2
			c3.4,0,5.1,2,5.1,6.1v10h-4.1v-10.1c0-1.8-0.8-2.7-2.3-2.7c-1.2,0-2.5,0.7-3.8,2.1v10.7h-4.1v-10.1c0-1.8-0.7-2.7-2.2-2.7
			c-1.3,0-2.6,0.7-3.8,2.1v10.7L242.5,135.2L242.5,135.2z"/>
		<path class="st0" d="M269.7,130.2c0-3.3,2.3-4.9,7-4.9c1.4,0,2.6,0.1,3.7,0.3v-1.1c0-1.4-1.4-2.2-4.2-2.2c-1.8,0-3.5,0.3-5.2,0.8
			v-3.2c1.7-0.5,3.5-0.8,5.2-0.8c5.5,0,8.2,1.8,8.2,5.3v10.8h-2l-1.7-1.1c-1.4,0.8-2.9,1.1-4.5,1.1
			C271.8,135.2,269.7,133.6,269.7,130.2z M276.7,128.3c-1.9,0-2.9,0.6-2.9,1.8c0,1.2,0.8,1.8,2.4,1.8c1.7,0,3.1-0.4,4.2-1.3v-2.1
			C279.4,128.4,278.1,128.3,276.7,128.3z"/>
		<path class="st0" d="M288.1,116.6h3l0.6,2.6h3.7v3.2h-3.3v7.4c0,1.5,0.6,2.2,1.9,2.2h1.3v3.2h-3.3c-2.7,0-4-1.4-4-4.3L288.1,116.6
			L288.1,116.6z"/>
		<path class="st0" d="M302.4,113.4v3.2h-4.1v-3.2H302.4z M302.4,119.2v16.1h-4.1v-16.1H302.4z"/>
		<path class="st0" d="M305.1,127.2c0-5.5,2.7-8.2,8.1-8.2s8.1,2.7,8.1,8.2c0,5.4-2.7,8.2-8.1,8.2
			C307.8,135.4,305.1,132.6,305.1,127.2z M313.2,132.2c2.7,0,4.1-1.7,4.1-5c0-3.3-1.4-4.9-4.1-4.9c-2.7,0-4.1,1.6-4.1,4.9
			C309.1,130.5,310.5,132.2,313.2,132.2z"/>
		<path class="st0" d="M324,135.2v-16.1h3.1l0.5,2.1c1.9-1.4,3.9-2.1,5.9-2.1c3.7,0,5.6,2,5.6,6v10.1H335v-10.1
			c0-1.8-0.9-2.7-2.6-2.7c-1.4,0-2.9,0.7-4.3,2v10.8L324,135.2L324,135.2z"/>
		<path class="st0" d="M348.6,134.3v-3.7c2.2,0.8,4.7,1.2,7.4,1.2c3.4,0,5-1.1,5-3.4c0-1.6-1-2.4-3.1-2.4h-3.7c-4.5,0-6.7-2-6.7-6.1
			c0-4.5,3.2-6.7,9.6-6.7c2.4,0,4.8,0.4,7,1.1v3.7c-2.2-0.8-4.5-1.2-7-1.2c-3.7,0-5.5,1.1-5.5,3.2c0,1.6,0.9,2.4,2.7,2.4h3.7
			c4.8,0,7.1,2,7.1,6.1c0,4.6-3,6.9-9.1,6.9C353.2,135.4,350.8,135,348.6,134.3z"/>
		<path class="st0" d="M366.8,127.2c0-5.5,2.7-8.2,8.1-8.2c5.4,0,8.1,2.7,8.1,8.2c0,5.4-2.7,8.2-8.1,8.2
			C369.5,135.4,366.8,132.6,366.8,127.2z M374.9,132.2c2.7,0,4.1-1.7,4.1-5c0-3.3-1.4-4.9-4.1-4.9s-4.1,1.6-4.1,4.9
			C370.8,130.5,372.2,132.2,374.9,132.2z"/>
		<path class="st0" d="M389.7,113.4v21.9h-4.1v-21.9H389.7z"/>
		<path class="st0" d="M408.4,119.2v16.1h-3.2l-0.5-2c-1.9,1.4-3.9,2-5.9,2c-3.7,0-5.5-2-5.5-6v-10.1h4.1v10.1
			c0,1.8,0.9,2.7,2.6,2.7c1.4,0,2.9-0.7,4.3-2v-10.8L408.4,119.2L408.4,119.2z"/>
		<path class="st0" d="M412.1,116.6h3l0.6,2.6h3.7v3.2h-3.3v7.4c0,1.5,0.6,2.2,1.9,2.2h1.3v3.2h-3.3c-2.7,0-4-1.4-4-4.3V116.6z"/>
		<path class="st0" d="M426.4,113.4v3.2h-4.1v-3.2H426.4z M426.4,119.2v16.1h-4.1v-16.1H426.4z"/>
		<path class="st0" d="M429.1,127.2c0-5.5,2.7-8.2,8.1-8.2c5.4,0,8.1,2.7,8.1,8.2c0,5.4-2.7,8.2-8.1,8.2
			C431.8,135.4,429.1,132.6,429.1,127.2z M437.2,132.2c2.7,0,4.1-1.7,4.1-5c0-3.3-1.4-4.9-4.1-4.9s-4.1,1.6-4.1,4.9
			C433.1,130.5,434.5,132.2,437.2,132.2z"/>
		<path class="st0" d="M448,135.2v-16.1h3.1l0.5,2.1c1.9-1.4,3.9-2.1,5.9-2.1c3.7,0,5.6,2,5.6,6v10.1h-4v-10.1
			c0-1.8-0.9-2.7-2.6-2.7c-1.4,0-2.9,0.7-4.3,2v10.8L448,135.2L448,135.2z"/>
		<path class="st0" d="M466.7,134.5v-3.4c1.8,0.7,3.8,1.1,6.2,1.1c1.7,0,2.6-0.6,2.6-1.7c0-1-0.6-1.5-1.8-1.5h-2.9
			c-3.3,0-4.9-1.6-4.9-4.9c0-3.4,2.4-5,7.1-5c2,0,3.9,0.3,5.7,0.9v3.4c-1.8-0.7-3.7-1.1-5.8-1.1c-2.2,0-3.3,0.6-3.3,1.7
			c0,1,0.6,1.5,1.9,1.5h2.6c3.6,0,5.4,1.6,5.4,4.9c0,3.4-2.3,5-6.8,5C470.5,135.4,468.5,135.1,466.7,134.5z"/>
	</g>
</g>
</svg>
